<svg width="80" height="80" viewBox="0 0 80 80" fill="none" xmlns="http://www.w3.org/2000/svg">
https://res.cloudinary.com/dq4flimtm/image/upload/v1749073693/G_darker_njrfdk.webp
  <rect width="80" height="80" rx="12" fill="#1e40af" fill-opacity="0.1"/>
  <circle cx="20" cy="20" r="3" fill="#3b82f6"/>
  <circle cx="60" cy="20" r="3" fill="#3b82f6"/>
  <circle cx="20" cy="60" r="3" fill="#3b82f6"/>
  <circle cx="60" cy="60" r="3" fill="#3b82f6"/>
  <circle cx="40" cy="40" r="4" fill="#60a5fa"/>
  
  <!-- Connection lines -->
  <line x1="20" y1="20" x2="40" y2="40" stroke="#3b82f6" stroke-width="2"/>
  <line x1="60" y1="20" x2="40" y2="40" stroke="#3b82f6" stroke-width="2"/>
  <line x1="20" y1="60" x2="40" y2="40" stroke="#3b82f6" stroke-width="2"/>
  <line x1="60" y1="60" x2="40" y2="40" stroke="#3b82f6" stroke-width="2"/>
  
  <!-- Circuit paths -->
  <path d="M10 40 L30 40 L30 25 L50 25 L50 40 L70 40" stroke="#60a5fa" stroke-width="1.5" fill="none"/>
  <path d="M40 10 L40 30 L55 30 L55 50 L40 50 L40 70" stroke="#60a5fa" stroke-width="1.5" fill="none"/>
</svg>